# xmcd
#
# Track frame offsets:
#	150
#	10614
#	24755
#	33401
#	42574
#	56502
#	67452
#	82714
#	96597
#	109523
#	130337
#	144944
#	158604
#	171986
#	185324
#	201761
#	213739
#	231790
#	243773
#	253393
#	264626
#
# Disc length: 3722 seconds
#
# Revision: 1
# Processed by: cddbd v1.5.1PL0 Copyright (c) Steve Scherf et al.
# Submitted via: audiograbber 1.83.01
#
DISCID=230e8815
DTITLE=Various Artist - Compilation Volume Four Portraits Of Country Music
DYEAR=1900
DGENRE=Country
TTITLE0=Shane Worley - Waltzing Mrs Santa
TTITLE1=Wade Sims - Neat little package
TTITLE2=Tom Horner - Wishing his parents weren't poor
TTITLE3=Tom Horner - Baby Christ child
TTITLE4=Pam Hicks - Almost gone
TTITLE5=Darryl Lee O'Donnel - She's out of my hands
TTITLE6=Elaine Wood - Give me one good reason
TTITLE7=Danielle Reddin - Don't come crying to me
TTITLE8=Danielle Reddin - Walking and talking
TTITLE9=J T Steel - Half a man
TTITLE10=Anni Filt - I won't take it anymore
TTITLE11=Pete Henderson - Flowers blooming in the Wildwood
TTITLE12=Rick Baker - Adios amigo
TTITLE13=Sherrill Black - Don't play with my heart
TTITLE14=Merritta Frame - Determined
TTITLE15=Benny Berry - The healing has happened
TTITLE16=Derrick Mehaffey - The never lasting kind
TTITLE17=Jacob Lyda - That's what I thought you wanted me to do
TTITLE18=Bobby D Atkins - Looking lucky
TTITLE19=Glenn Swafford - Sioux Ciyt Sue
TTITLE20=Mike Headrick - Springtime in Austin (Instr. steelguitar)
EXTD=
EXTT0=
EXTT1=
EXTT2=
EXTT3=
EXTT4=
EXTT5=
EXTT6=
EXTT7=
EXTT8=
EXTT9=
EXTT10=
EXTT11=
EXTT12=
EXTT13=
EXTT14=
EXTT15=
EXTT16=
EXTT17=
EXTT18=
EXTT19=
EXTT20=
PLAYORDER=
